<?xml version="1.0" standalone="no"?>
<!DOCTYPE svg PUBLIC "-//W3C//DTD SVG 20010904//EN"
 "http://www.w3.org/TR/2001/REC-SVG-20010904/DTD/svg10.dtd">
<svg version="1.0" xmlns="http://www.w3.org/2000/svg"
 width="573.000000pt" height="572.000000pt" viewBox="0 0 573.000000 572.000000"
 preserveAspectRatio="xMidYMid meet">

<g transform="translate(0.000000,572.000000) scale(0.100000,-0.100000)"
fill="#000000" stroke="none">
<path d="M2154 5660 c4 -14 13 -50 21 -80 20 -73 19 -155 -2 -191 -16 -27 -16
-29 1 -48 16 -17 17 -23 6 -36 -11 -13 -10 -14 2 -10 20 8 28 48 22 105 -4 41
-3 43 6 15 7 -18 8 -73 4 -140 -3 -65 -1 -150 6 -207 10 -88 9 -108 -10 -201
-18 -92 -19 -117 -11 -228 l10 -124 -4 129 c-4 108 -1 145 16 220 20 85 21 98
9 203 -8 70 -10 149 -5 206 8 115 -24 333 -57 382 -18 28 -19 28 -14 5z"/>
<path d="M3210 5503 c-36 -16 -64 -20 -163 -25 -45 -2 -62 -8 -73 -23 -8 -11
-22 -20 -32 -20 -9 0 -19 -11 -23 -25 l-7 -25 -1 28 c-1 28 -1 28 -22 8 -17
-16 -26 -17 -55 -9 -24 6 -39 6 -49 -2 -7 -6 -17 -10 -21 -9 -22 4 -34 -2 -34
-17 0 -10 -6 -14 -15 -11 -9 4 -22 -5 -35 -23 -17 -24 -18 -30 -7 -30 13 0 13
-5 4 -30 -12 -30 -27 -40 -27 -17 0 8 -4 7 -10 -3 -5 -8 -10 -11 -10 -6 0 20
-43 -32 -90 -110 -42 -70 -50 -91 -50 -134 0 -27 -4 -50 -10 -50 -5 0 -10 -7
-10 -16 0 -8 5 -12 10 -9 6 3 10 -1 10 -10 0 -11 -5 -15 -16 -11 -9 4 -13 2
-8 -5 4 -6 8 -33 10 -60 2 -32 12 -63 29 -86 14 -21 25 -49 26 -63 0 -22 1
-23 8 -5 6 14 10 1 15 -45 10 -83 34 -179 53 -209 8 -13 17 -50 20 -82 l6 -58
-67 -48 c-70 -50 -77 -64 -48 -85 10 -7 34 -46 52 -86 34 -74 77 -122 109
-122 13 0 30 -27 61 -97 23 -54 55 -123 71 -153 15 -30 31 -67 35 -82 5 -24
11 -28 43 -28 64 0 110 -19 132 -53 18 -30 19 -45 14 -207 -3 -96 -12 -260
-19 -365 -7 -104 -19 -311 -26 -460 -7 -148 -16 -322 -21 -385 -5 -63 -9 -141
-9 -172 1 -46 -2 -58 -14 -58 -9 0 -16 -7 -16 -15 0 -8 7 -15 15 -15 10 0 15
-10 15 -30 0 -16 -4 -30 -10 -30 -5 0 -10 7 -10 17 0 15 -2 15 -19 -1 -33 -30
-59 -97 -56 -149 l2 -47 -49 0 -48 0 0 -40 c0 -29 4 -40 15 -40 8 0 15 -4 15
-10 0 -5 -17 -10 -38 -10 -25 0 -45 -7 -55 -18 -23 -25 -147 -30 -147 -7 0 11
-11 15 -40 15 -36 0 -40 -2 -40 -25 l0 -25 -120 0 c-137 0 -170 -19 -37 -22
45 -1 63 -3 40 -5 -54 -5 -56 -23 -3 -23 32 0 40 -4 39 -17 0 -11 -3 -13 -6
-5 -6 15 -373 18 -373 2 0 -5 14 -10 30 -10 23 0 30 -4 30 -20 0 -18 -7 -20
-80 -20 -64 0 -80 3 -80 15 0 11 -12 15 -40 16 -22 1 -58 2 -79 3 -22 0 -42 4
-45 7 -3 3 33 5 79 4 47 -1 85 2 85 7 0 9 -200 13 -372 9 -66 -2 -108 0 -108
6 0 6 -37 15 -82 20 l-83 10 85 3 85 3 -82 10 c-78 9 -83 11 -83 33 0 21 -5
24 -40 24 -25 0 -40 5 -40 13 0 7 -15 12 -40 13 -27 1 -40 -3 -40 -12 0 -19
-96 -19 -107 0 -4 8 -17 15 -28 17 -15 3 -21 13 -23 42 -3 34 -6 37 -33 37
-27 0 -29 2 -29 40 0 29 -5 42 -19 50 -24 12 -74 13 -67 1 3 -4 -13 -7 -36 -7
-38 2 -43 4 -50 34 -5 18 -11 32 -14 32 -4 0 -3 -8 0 -17 4 -9 1 -20 -6 -25
-10 -6 -10 -10 2 -18 12 -8 9 -10 -12 -10 -30 0 -31 3 -29 70 0 19 -2 29 -5
22 -3 -6 -10 -10 -15 -6 -5 3 -9 -1 -9 -10 0 -8 5 -16 10 -18 6 -1 -53 -3
-130 -3 -76 1 -143 4 -147 9 -4 4 -13 26 -18 49 -13 49 -39 61 -49 23 -8 -33
-24 -33 -32 -1 -3 14 -12 25 -20 25 -8 0 -14 8 -14 19 0 16 -11 20 -75 26 -41
3 -79 4 -84 1 -5 -4 -12 2 -16 13 -4 14 -15 19 -35 19 l-30 -1 0 -979 0 -978
1444 0 1444 0 6 31 c3 17 6 57 6 89 0 31 3 91 6 132 l7 75 43 24 c24 13 44 27
44 30 0 4 23 15 51 24 28 10 53 23 56 31 3 8 12 14 19 14 26 0 94 40 94 55 0
8 10 17 23 20 12 2 56 11 97 20 41 8 98 21 125 29 136 38 202 79 110 68 -26
-2 -63 0 -83 6 -42 12 -185 33 -250 36 -45 3 -72 18 -53 30 6 4 11 14 11 22 0
13 -3 13 -22 0 -28 -20 -36 -20 -34 0 1 18 -112 52 -176 53 l-38 1 0 75 c0 71
1 75 25 81 31 8 33 24 4 24 -22 0 -22 2 -17 151 3 82 8 153 12 156 3 3 31 -4
63 -15 32 -12 89 -29 127 -38 65 -15 75 -15 170 1 56 10 137 30 181 45 44 16
121 40 170 55 50 15 104 33 120 40 17 7 80 24 140 39 77 19 146 44 233 87 111
55 129 61 190 62 125 2 225 -52 312 -171 53 -72 64 -112 30 -112 -11 0 -20 6
-21 13 0 6 -5 0 -11 -15 -10 -28 -22 -32 -90 -31 -10 0 -18 -7 -18 -14 0 -9
-7 -12 -19 -8 -13 4 -20 0 -24 -16 -5 -17 -11 -20 -28 -16 -25 7 -87 -18 -105
-42 -6 -8 -16 -11 -22 -7 -6 3 -13 -3 -17 -14 -5 -16 -15 -20 -55 -20 -27 0
-50 -5 -52 -10 -2 -6 -14 -12 -28 -14 -14 -1 -35 -8 -47 -15 -13 -6 -23 -9
-23 -5 0 3 -7 1 -15 -6 -8 -6 -19 -9 -25 -5 -6 4 -28 -1 -48 -11 -20 -10 -52
-17 -69 -17 -18 1 -33 -2 -33 -6 0 -15 -68 -29 -80 -17 -9 8 -11 3 -5 -21 6
-29 4 -33 -16 -33 -20 0 -21 -4 -16 -43 3 -24 8 -49 11 -57 4 -10 -13 -25 -53
-47 -44 -24 -64 -43 -79 -73 l-20 -40 37 5 c34 6 95 28 166 61 82 38 191 41
326 9 51 -11 65 -11 107 2 l47 15 78 -37 c81 -39 117 -42 223 -18 59 14 200
92 215 119 13 25 91 60 108 49 6 -3 11 -14 11 -23 1 -11 26 -29 71 -51 86 -42
114 -76 104 -129 -11 -63 -14 -68 -65 -101 -68 -44 -91 -75 -83 -114 5 -25 4
-29 -10 -24 -10 4 -17 2 -17 -3 0 -6 -4 -10 -10 -10 -5 0 -10 9 -10 21 0 11 4
18 8 15 5 -3 9 8 9 24 0 16 -4 27 -8 25 -4 -3 -14 -2 -23 1 -13 5 -14 9 -5 20
6 8 15 11 20 8 5 -3 9 -1 9 3 0 5 16 17 35 27 19 11 35 22 35 26 0 4 13 13 30
20 16 7 27 16 25 20 -3 5 -1 11 5 15 5 3 10 1 10 -5 0 -6 5 -8 11 -5 12 8 28
47 23 57 -2 3 -39 -11 -81 -33 -76 -39 -118 -47 -151 -30 -9 4 -30 11 -45 15
-28 7 -29 6 -22 -24 5 -24 3 -30 -10 -30 -14 0 -15 3 -6 14 9 10 9 16 1 21 -6
4 -9 14 -6 22 3 8 4 19 1 23 -8 12 -35 1 -35 -14 0 -8 -12 -11 -32 -8 -18 2
-53 -2 -78 -8 -221 -55 -489 -99 -453 -73 6 4 11 19 12 33 0 14 3 42 7 63 3
21 2 37 -3 37 -5 0 -72 -38 -149 -84 -572 -344 -1030 -619 -1033 -622 -2 -2
202 -4 453 -4 l458 0 -7 37 c-4 21 -15 47 -25 58 -21 24 -35 81 -22 89 5 3 15
-1 22 -9 17 -20 33 -19 48 5 10 17 10 20 -3 20 -8 0 -15 5 -15 10 0 6 13 4 30
-5 31 -16 37 -29 20 -40 -16 -10 -12 -19 13 -30 15 -7 21 -18 20 -35 -1 -14 0
-20 3 -14 4 10 38 9 73 -2 21 -7 -5 -31 -41 -39 l-30 -7 28 -19 c26 -17 50
-19 215 -19 149 0 189 3 198 14 10 11 8 15 -6 19 -15 4 -14 5 4 6 12 0 24 -5
26 -11 4 -10 6 -10 6 -1 1 7 9 10 19 7 9 -2 7 1 -5 7 -13 7 -25 20 -28 30 -3
10 -15 19 -27 21 -30 4 -31 34 -1 47 23 11 24 13 10 34 -11 17 -12 28 -5 41 5
10 7 28 4 42 -5 17 -2 24 9 24 11 0 10 6 -7 25 -12 14 -30 25 -39 25 -10 0
-20 4 -23 9 -3 5 -18 12 -33 16 -16 3 -41 13 -58 20 -16 7 -51 21 -77 30 -27
10 -48 21 -48 26 0 4 -13 10 -30 14 -47 10 -46 25 2 25 42 0 210 20 334 40 34
6 74 9 90 9 25 -1 23 -3 -11 -9 -22 -5 -80 -18 -130 -29 -49 -11 -124 -25
-165 -32 l-75 -12 45 -20 c66 -29 75 -33 185 -65 55 -16 120 -39 145 -50 54
-24 169 -43 167 -27 -4 20 -38 36 -77 37 -42 0 -69 18 -28 18 13 0 46 3 75 6
48 6 53 5 81 -24 17 -17 33 -28 37 -24 4 4 5 -15 4 -43 l-3 -50 79 -31 c70
-28 115 -61 115 -84 0 -4 -35 -7 -77 -7 -57 1 -113 -8 -203 -30 -69 -17 -134
-34 -145 -36 -11 -3 226 -5 528 -6 l547 -1 0 1484 c0 817 -3 1487 -7 1489 -5
3 -111 8 -237 12 l-228 8 7 -44 c4 -24 15 -82 26 -129 11 -47 23 -125 27 -175
8 -88 0 -427 -17 -690 -8 -139 -10 -131 44 -220 33 -54 33 -137 1 -242 -22
-73 -33 -112 -72 -270 -27 -107 -62 -129 -103 -63 l-18 31 -17 -35 c-9 -19
-13 -41 -10 -49 6 -18 42 -29 50 -16 3 5 15 9 27 9 18 0 19 -2 7 -10 -8 -5
-12 -10 -7 -10 4 0 1 -13 -7 -29 -19 -36 -63 -66 -79 -53 -15 11 -47 12 -47 0
0 -4 -4 -8 -10 -8 -5 0 -7 8 -3 18 4 11 -2 9 -18 -8 -13 -14 -33 -32 -43 -40
-18 -15 -19 -13 -12 47 7 67 -7 97 -19 37 -8 -45 -12 -41 -30 30 -37 141 -182
363 -272 416 -31 18 -35 19 -29 3 6 -15 5 -15 -11 -2 -28 23 -113 65 -171 84
-38 12 -76 16 -130 13 -83 -4 -134 -23 -177 -65 -14 -15 -28 -24 -31 -20 -12
12 25 52 91 97 89 60 180 145 171 158 -4 6 2 16 13 22 12 6 26 20 32 31 8 17
7 23 -7 33 -12 9 -15 20 -11 37 3 13 -1 52 -10 86 l-17 63 34 35 c19 19 29 35
23 35 -19 0 -25 38 -13 75 10 29 9 43 -5 79 -15 40 -15 49 0 134 12 67 15 116
10 179 -3 49 -7 126 -8 173 -2 101 -15 131 -33 79 l-12 -34 -11 28 c-6 16 -11
36 -11 46 0 9 -7 26 -15 37 -14 17 -15 15 -9 -31 3 -27 10 -66 15 -85 19 -73
12 -78 -37 -26 -37 40 -44 45 -40 25 3 -13 7 -66 11 -117 3 -51 10 -117 16
-148 13 -68 6 -90 -33 -110 -17 -9 -27 -11 -24 -5 4 6 2 11 -3 11 -6 0 -11 -4
-11 -8 0 -5 -10 -14 -22 -20 -22 -10 -22 -11 -3 -12 19 -1 19 -1 2 -11 -12 -7
-16 -17 -12 -30 4 -12 -1 -29 -14 -45 -11 -14 -17 -32 -14 -40 6 -17 -14 -63
-36 -80 -8 -6 -11 -16 -8 -21 4 -6 -2 -30 -12 -54 -14 -30 -17 -48 -10 -60 13
-25 12 -33 -10 -55 -10 -12 -21 -41 -24 -65 -8 -59 -23 -118 -47 -178 -11 -28
-17 -57 -14 -66 3 -8 -4 -30 -16 -50 -12 -20 -20 -42 -17 -50 4 -9 -4 -16 -24
-20 -33 -8 -37 -20 -10 -34 38 -21 31 -36 -16 -32 -26 2 -57 -3 -78 -13 -38
-18 -47 -31 -15 -23 22 6 29 -18 8 -26 -20 -6 -48 4 -48 18 0 7 -11 20 -25 29
-25 16 -25 17 -19 134 4 64 11 118 16 120 13 6 10 25 -13 71 -14 29 -17 47
-11 53 6 6 8 34 5 64 -4 35 -2 54 5 54 6 0 12 -5 14 -11 2 -6 25 -13 52 -16
43 -5 48 -4 44 13 -2 15 -15 20 -56 24 -29 3 -57 1 -62 -4 -12 -12 -40 0 -40
19 0 8 9 15 20 15 22 0 27 15 9 26 -6 3 -8 17 -5 30 5 19 2 24 -13 24 -11 0
-33 13 -49 30 l-30 29 -6 -37 c-3 -20 -3 -47 0 -59 7 -27 -10 -82 -41 -128
-19 -26 -21 -35 -10 -35 25 0 17 -30 -10 -40 -14 -5 -28 -17 -31 -25 -4 -8
-13 -15 -22 -15 -12 0 -13 -3 -4 -12 23 -23 14 -45 -20 -52 -65 -12 -84 -14
-123 -18 l-40 -3 -3 58 c-3 59 -15 75 -26 33 -3 -14 -16 -26 -31 -30 -31 -8
-105 15 -105 32 0 7 -4 10 -10 7 -5 -3 -10 -19 -10 -35 0 -22 14 -43 55 -84
30 -30 55 -62 55 -71 0 -8 8 -32 19 -53 21 -43 35 -123 26 -152 -4 -12 -16
-20 -28 -21 l-22 0 21 -9 c27 -11 39 -29 28 -40 -13 -12 -54 7 -54 25 0 9 -18
42 -40 72 -22 31 -40 61 -40 66 0 5 -14 32 -31 59 -29 49 -75 158 -86 208 -4
14 -13 36 -22 49 -33 51 -33 162 0 801 6 113 13 277 16 365 3 88 9 165 15 172
6 8 16 9 26 4 10 -5 34 -16 55 -25 20 -8 37 -22 37 -31 0 -8 7 -15 15 -15 9 0
15 -9 16 -22 0 -19 4 -16 17 14 11 24 21 35 29 30 28 -18 123 -220 123 -263 0
-23 53 -130 63 -126 6 2 22 25 36 53 14 27 28 51 31 54 31 29 206 371 225 440
4 14 22 57 40 95 50 104 71 162 100 271 22 81 26 113 23 179 -3 44 -12 96 -22
115 l-16 35 7 -45 c9 -61 9 -159 1 -190 -4 -15 -15 -26 -25 -26 -14 0 -18 9
-20 38 0 21 -6 45 -12 52 -14 16 -24 193 -12 201 14 8 23 90 22 201 -1 63 3
104 9 104 5 0 10 -22 10 -50 0 -54 21 -90 52 -90 23 0 23 18 1 42 -15 17 -15
19 2 38 10 11 24 20 32 20 7 0 13 -9 13 -20 0 -27 24 -25 43 3 23 36 40 189
26 237 -17 57 -32 67 -76 51 -27 -10 -38 -10 -46 -1 -9 9 -6 17 14 33 25 21
27 30 37 162 9 100 9 152 1 180 -40 152 -43 157 -67 133 -9 -9 -12 -7 -12 10
0 12 -4 22 -10 22 -5 0 -10 -5 -10 -11 0 -5 -4 -8 -9 -5 -5 4 -13 -8 -17 -26
-6 -29 -8 -30 -15 -13 -7 19 -8 19 -8 -2 -1 -22 -31 -34 -31 -12 0 5 -5 7 -10
4 -6 -4 -7 -12 -4 -18 5 -8 4 -9 -4 -2 -5 6 -12 19 -15 30 -3 11 -6 0 -7 -25
-1 -25 -4 -37 -7 -28 -3 14 -9 16 -22 8 -10 -5 -21 -6 -25 -3 -3 3 -6 -2 -6
-13 0 -16 -2 -16 -10 -4 -10 16 16 54 31 44 5 -3 6 2 3 10 -3 9 3 20 15 28 12
7 21 18 21 24 0 6 6 11 14 11 8 0 12 -6 9 -12 -2 -7 3 -15 11 -18 12 -5 16 0
16 19 0 26 24 57 53 67 26 10 21 22 -20 43 -34 18 -38 24 -50 88 -12 69 -54
139 -103 173 -19 13 -20 12 -21 -14 0 -15 -3 -22 -6 -14 -6 15 -40 51 -48 51
-3 0 -5 -7 -5 -15 0 -8 -7 -15 -15 -15 -8 0 -15 4 -15 10 0 15 -58 70 -62 59
-3 -8 -19 -6 -51 5 -60 20 -151 20 -197 -1z m137 -16 c-6 -20 -27 -19 -27 2 0
14 5 19 15 14 9 -3 14 -10 12 -16z m50 -19 c15 -6 32 -10 37 -9 4 1 14 -4 22
-10 8 -6 14 -8 14 -3 0 5 7 -2 16 -14 8 -12 12 -27 8 -33 -3 -6 0 -15 7 -20
12 -7 12 -9 -1 -9 -9 0 -6 -6 9 -17 l24 -16 -23 -9 c-18 -6 -26 -5 -32 7 -5 8
-15 15 -23 15 -17 0 -75 48 -75 62 0 10 60 6 79 -6 6 -4 11 -3 11 2 0 10 -30
22 -68 28 -26 3 -52 21 -52 35 0 12 13 11 47 -3z m-372 -49 c0 -22 6 -43 12
-47 6 -4 14 -19 18 -34 4 -15 13 -32 21 -39 8 -6 14 -19 14 -28 -1 -21 -50 38
-50 60 0 9 -3 19 -7 23 -16 15 -30 75 -21 90 13 22 13 21 13 -25z m331 0 c3
-5 1 -9 -5 -9 -17 0 -41 12 -41 20 0 10 38 1 46 -11z m-108 -166 c13 -12 22
-23 20 -24 -33 -8 -79 -1 -90 14 -7 9 -17 17 -23 17 -7 0 -22 12 -36 26 l-24
26 28 -7 c17 -5 27 -3 27 4 0 13 68 -25 98 -56z m-389 32 c6 3 12 3 12 -2 5
-27 9 -52 15 -78 l7 -30 -21 23 c-12 13 -26 21 -31 17 -7 -3 -8 0 -5 10 4 8
-1 26 -10 40 -22 34 -20 52 3 31 11 -10 25 -15 30 -11z m291 -46 c0 -11 -3
-11 -24 -3 -23 9 -20 23 4 17 11 -3 20 -9 20 -14z m-159 -31 c29 -31 31 -28
12 20 -7 16 36 -23 66 -61 17 -21 -2 -23 -23 -1 -9 8 -16 11 -16 5 0 -6 11
-17 23 -26 24 -15 53 -65 39 -65 -4 0 -29 23 -55 50 -26 28 -51 50 -56 50 -5
0 -14 14 -20 30 -5 17 -8 30 -6 30 2 0 18 -15 36 -32z m-126 -28 c10 -11 13
-20 7 -20 -6 0 -16 9 -22 20 -6 11 -9 20 -7 20 2 0 12 -9 22 -20z m835 -69 c0
-5 -9 -20 -21 -35 -16 -21 -24 -24 -35 -15 -11 9 -11 14 -1 25 7 7 18 20 25
29 13 15 32 12 32 -4z m-200 -139 c0 -4 -6 -14 -12 -21 -11 -11 -9 -11 10 -2
12 6 22 16 22 21 0 6 7 10 15 10 20 0 20 -58 0 -84 -19 -25 -19 -31 2 -51 25
-25 29 -156 6 -195 l-17 -29 36 -36 c34 -32 40 -34 81 -29 43 6 46 5 61 -24 9
-17 16 -38 16 -46 0 -17 -75 -76 -96 -76 -8 0 -11 -6 -8 -15 4 -10 0 -15 -10
-15 -11 0 -16 7 -14 18 2 11 -5 18 -21 20 -14 2 -34 10 -45 17 -12 8 -63 23
-113 35 -51 12 -95 26 -99 31 -3 5 8 21 25 35 17 14 31 34 31 45 0 10 5 19 10
19 6 0 10 -5 10 -11 0 -5 5 -7 11 -3 8 4 7 9 -2 15 -11 7 -11 9 2 9 8 0 20 -5
27 -12 9 -9 12 -8 12 5 0 9 -6 18 -12 18 -51 5 -89 27 -101 58 -10 28 -37 45
-63 42 -28 -3 -64 19 -64 40 0 30 92 114 165 149 33 17 74 39 90 49 33 22 45
25 45 13z m-824 -292 c19 0 18 -40 -2 -55 -9 -6 -25 -43 -35 -81 -17 -66 -18
-67 -20 -29 -3 55 2 158 8 168 3 5 12 6 20 3 8 -3 21 -6 29 -6z m704 -66 c0
-2 -7 -4 -15 -4 -8 0 -15 4 -15 10 0 5 7 7 15 4 8 -4 15 -8 15 -10z m400 -106
c-11 -12 -23 -18 -27 -14 -5 4 1 14 11 22 30 21 39 17 16 -8z m-32 -105 c32
-65 38 -229 12 -333 -14 -56 -15 -65 -7 -115 5 -29 4 -33 -2 -15 -9 24 -9 24
-10 3 -1 -13 -5 -23 -11 -23 -5 0 -10 -8 -10 -17 -1 -27 -64 -92 -86 -89 -10
2 -19 9 -19 17 0 8 8 13 18 11 24 -4 21 14 -5 32 -16 12 -22 28 -26 71 -4 55
-4 55 24 55 l27 0 -21 23 c-12 13 -22 32 -23 43 0 11 -3 14 -6 6 -4 -10 -8 -9
-18 5 -13 17 -14 17 -37 -2 l-23 -20 22 26 c19 21 24 42 30 118 5 84 9 96 34
124 16 17 32 27 36 23 5 -5 2 -11 -4 -13 -7 -3 -13 -10 -13 -18 0 -7 -7 -18
-15 -25 -8 -7 -15 -16 -15 -21 0 -23 20 -2 68 71 29 44 57 80 62 80 5 0 13 -8
18 -17z m-211 -29 c-3 -3 -12 -4 -19 -1 -8 3 -5 6 6 6 11 1 17 -2 13 -5z m433
-44 c0 -10 -4 -22 -10 -25 -6 -4 -10 7 -10 25 0 18 4 29 10 25 6 -3 10 -15 10
-25z m-120 -34 c0 -3 -4 -8 -10 -11 -5 -3 -10 -1 -10 4 0 6 5 11 10 11 6 0 10
-2 10 -4z m-1210 -31 c0 -10 -10 -15 -27 -15 -27 1 -27 1 -9 15 25 19 36 19
36 0z m914 -10 c3 -9 3 -43 -1 -76 -5 -47 -10 -62 -27 -70 -19 -9 -20 -9 -3 4
18 15 24 33 8 22 -12 -7 -51 34 -51 53 0 14 50 80 61 81 4 1 10 -6 13 -14z
m-894 -83 c6 -31 15 -65 21 -75 5 -10 7 -22 4 -27 -4 -6 -2 -10 3 -10 6 0 12
-7 15 -14 4 -11 1 -13 -11 -10 -16 5 -16 4 -1 -8 14 -11 14 -15 3 -26 -32 -30
-62 -1 -110 102 -34 74 -30 106 16 121 19 7 38 11 42 9 4 -3 12 -30 18 -62z
m440 -64 c0 -9 5 -20 10 -23 6 -4 17 -22 25 -41 10 -25 20 -34 37 -34 30 0 59
-19 40 -27 -10 -4 -9 -8 5 -19 24 -18 -2 -19 -37 -1 -17 9 -39 11 -69 5 -36
-7 -46 -5 -57 10 -7 9 -14 13 -14 7 -1 -5 -5 -1 -10 10 -7 17 -9 17 -9 3 -1
-10 -6 -15 -15 -12 -7 3 -16 -2 -19 -10 -4 -9 -13 -16 -21 -16 -8 0 -16 -6
-19 -12 -2 -7 -8 -9 -13 -5 -5 5 -2 14 7 20 8 7 24 35 34 62 21 57 40 85 30
43 -5 -18 -3 -28 4 -28 6 0 11 11 11 25 0 14 5 25 11 25 6 0 8 8 4 19 -5 16
-2 18 15 14 16 -4 20 -1 20 18 0 22 0 22 15 3 8 -10 15 -27 15 -36z m323 9
c14 -16 15 -22 5 -28 -9 -6 -5 -9 12 -9 17 0 21 -3 13 -11 -15 -15 -105 -17
-110 -1 -3 6 4 12 14 13 13 0 14 2 4 6 -8 3 -24 16 -35 28 -12 12 -28 25 -36
28 -8 3 14 4 50 1 49 -5 70 -11 83 -27z m74 -3 c-3 -3 -12 -4 -19 -1 -8 3 -5
6 6 6 11 1 17 -2 13 -5z m3 -18 c0 -2 -7 -7 -16 -10 -8 -3 -12 -2 -9 4 6 10
25 14 25 6z m15 -35 c3 -5 2 -12 -3 -15 -5 -3 -9 1 -9 9 0 17 3 19 12 6z
m-3355 -2168 c0 -12 -3 -14 -8 -6 -4 6 -23 13 -42 16 -33 4 -33 4 8 5 34 2 42
-1 42 -15z m3380 -133 c0 -5 -4 -10 -10 -10 -5 0 -10 5 -10 10 0 6 5 10 10 10
6 0 10 -4 10 -10z m-2900 -30 c0 -5 -18 -10 -40 -10 -22 0 -40 5 -40 10 0 6
18 10 40 10 22 0 40 -4 40 -10z m217 -6 c-3 -3 -12 -4 -19 -1 -8 3 -5 6 6 6
11 1 17 -2 13 -5z m69 -179 c-25 -19 -60 -19 -76 0 -11 13 -5 15 41 15 50 -1
52 -2 35 -15z m2427 -16 c34 -1 129 -34 121 -42 -11 -10 70 -9 81 2 6 5 31 12
58 15 39 6 47 5 47 -8 0 -9 4 -16 8 -16 17 0 -14 -89 -37 -110 -30 -25 -21
-38 11 -16 12 9 29 16 38 15 9 0 6 -4 -7 -9 -13 -5 -23 -13 -23 -18 0 -5 -22
-12 -50 -15 -27 -3 -61 -14 -77 -24 -15 -10 -39 -18 -53 -18 -22 0 -25 4 -25
39 0 45 -19 62 -60 52 -26 -7 -27 -10 -22 -51 4 -44 4 -45 -22 -38 -14 3 -27
6 -28 7 -1 1 -5 31 -9 68 -8 83 4 210 18 185 5 -9 19 -17 31 -18z m-673 -57
c0 -5 -9 -17 -20 -27 -20 -18 -20 -17 -20 8 0 20 5 27 20 27 11 0 20 -4 20 -8z
m-365 -72 c-5 -8 -72 -7 -79 1 -3 2 15 5 39 5 24 0 42 -3 40 -6z m2577 -485
c3 -23 -1 -36 -10 -40 -7 -2 -10 0 -7 5 9 15 -2 12 -30 -6 -14 -9 -25 -13 -25
-10 0 11 52 86 60 86 4 0 10 -16 12 -35z m-1014 -74 c3 -8 -1 -12 -9 -9 -7 2
-15 10 -17 17 -3 8 1 12 9 9 7 -2 15 -10 17 -17z m1036 -236 c-7 -17 -20 -20
-28 -6 -7 10 3 21 20 21 8 0 11 -6 8 -15z m-30 -30 c3 -8 1 -15 -4 -15 -6 0
-10 7 -10 15 0 8 2 15 4 15 2 0 6 -7 10 -15z m-1931 -22 c-7 -2 -19 -2 -25 0
-7 3 -2 5 12 5 14 0 19 -2 13 -5z m1892 -3 c-28 -12 -37 -12 -30 0 3 6 16 10
28 9 21 0 21 -1 2 -9z m-140 -20 c3 -5 -3 -10 -15 -10 -12 0 -18 5 -15 10 3 6
10 10 15 10 5 0 12 -4 15 -10z m-1530 -20 c3 -5 -1 -10 -9 -10 -8 0 -18 5 -21
10 -3 6 1 10 9 10 8 0 18 -4 21 -10z m1644 -36 c21 -5 30 -11 27 -20 -7 -19 8
-26 36 -15 12 4 38 6 56 4 30 -5 31 -6 15 -20 -17 -13 -16 -14 5 -8 13 4 22 2
22 -5 0 -22 -33 -22 -113 -1 -45 12 -104 21 -130 21 -27 0 -46 4 -43 9 4 5 -3
7 -14 4 -26 -7 -90 5 -90 17 0 16 166 26 229 14z m-1769 -14 c21 -7 19 -8 -17
-9 -23 -1 -45 4 -48 9 -7 12 29 12 65 0z m1357 -46 c-3 -3 -12 -4 -19 -1 -8 3
-5 6 6 6 11 1 17 -2 13 -5z m-1464 -21 c-7 -2 -19 -2 -25 0 -7 3 -2 5 12 5 14
0 19 -2 13 -5z m2507 2 c0 -3 -9 -16 -21 -28 -12 -12 -36 -44 -54 -72 -19 -27
-43 -61 -54 -75 -19 -23 -21 -23 -20 -5 0 31 30 81 83 135 44 45 66 60 66 45z
m-1355 -125 c-3 -5 -10 -10 -16 -10 -5 0 -9 5 -9 10 0 6 7 10 16 10 8 0 12 -4
9 -10z m55 -6 c0 -9 -5 -14 -12 -12 -18 6 -21 28 -4 28 9 0 16 -7 16 -16z
m-230 -85 c0 -5 -4 -9 -10 -9 -5 0 -10 7 -10 16 0 8 5 12 10 9 6 -3 10 -10 10
-16z m-14 -87 c-4 -3 -11 -1 -17 5 -8 8 -8 15 2 26 12 13 14 13 17 -5 2 -11 1
-22 -2 -26z m-646 -37 c0 -2 -10 -9 -22 -15 -22 -11 -22 -10 -4 4 21 17 26 19
26 11z"/>
<path d="M3663 3979 c-4 -13 -11 -18 -20 -14 -11 4 -13 1 -9 -11 3 -8 6 -18 6
-20 0 -2 9 -4 20 -4 16 0 20 7 20 35 0 39 -9 46 -17 14z"/>
<path d="M3032 4050 c0 -14 2 -19 5 -12 2 6 2 18 0 25 -3 6 -5 1 -5 -13z"/>
<path d="M1952 4888 c-18 -29 -52 -104 -52 -114 0 -2 9 -4 19 -4 12 0 21 9 25
25 7 28 31 33 44 9 8 -14 10 -14 25 1 23 22 21 52 -3 58 -12 3 -20 14 -20 25
0 34 -17 34 -38 0z"/>
<path d="M1800 4795 c0 -8 5 -15 10 -15 6 0 10 7 10 15 0 8 -4 15 -10 15 -5 0
-10 -7 -10 -15z"/>
<path d="M1993 4753 c9 -2 23 -2 30 0 6 3 -1 5 -18 5 -16 0 -22 -2 -12 -5z"/>
<path d="M2120 4740 c-11 -7 -7 -10 18 -10 17 0 32 5 32 10 0 13 -30 13 -50 0z"/>
<path d="M1868 4643 c6 -2 18 -2 25 0 6 3 1 5 -13 5 -14 0 -19 -2 -12 -5z"/>
<path d="M2192 4480 c0 -14 2 -19 5 -12 2 6 2 18 0 25 -3 6 -5 1 -5 -13z"/>
<path d="M2184 4345 c0 -55 1 -76 3 -47 2 29 2 74 0 100 -2 26 -3 2 -3 -53z"/>
<path d="M1716 4355 c-4 -16 -9 -35 -11 -42 -6 -18 14 -27 21 -10 3 8 4 30 2
49 l-4 33 -8 -30z"/>
<path d="M2170 4173 c0 -17 -3 -39 -6 -48 -5 -13 -2 -16 12 -13 14 3 18 11 16
33 -5 46 -21 67 -22 28z"/>
<path d="M3816 4142 c-3 -3 -6 -13 -6 -21 0 -22 72 -19 107 4 33 22 22 31 -16
12 -25 -12 -34 -13 -55 -2 -13 7 -27 11 -30 7z"/>
<path d="M2087 3823 c-9 -2 -15 -9 -12 -14 4 -5 -3 -9 -14 -9 -11 0 -22 4 -26
9 -3 5 -33 7 -68 4 -34 -3 -69 -5 -77 -5 -8 0 -40 -4 -70 -8 -30 -5 -95 -12
-145 -15 -49 -4 -100 -13 -112 -21 -18 -11 -22 -11 -27 1 -7 20 -136 20 -201
1 -26 -8 -51 -15 -54 -14 -21 2 -31 -4 -31 -19 0 -13 -2 -15 -8 -5 -7 9 -15 7
-35 -12 -23 -21 -27 -34 -27 -76 0 -31 -4 -49 -10 -45 -12 7 -1 127 12 136 5
3 2 11 -6 18 -14 12 -59 7 -81 -9 -5 -4 -21 -10 -35 -14 -34 -8 -142 -158
-122 -169 4 -2 140 -1 302 4 162 4 408 10 545 14 276 7 555 22 564 30 2 3 0
20 -6 38 -7 17 -17 51 -23 74 -10 41 -11 42 -45 36 -26 -4 -35 -2 -35 8 0 8
-9 20 -20 27 -11 6 -17 18 -14 25 4 11 -8 14 -48 14 -29 1 -61 -1 -71 -4z
m217 -110 c4 -9 2 -21 -3 -26 -6 -6 -4 -15 5 -25 21 -20 9 -28 -20 -13 -16 9
-22 19 -19 32 3 11 0 19 -6 19 -8 0 -8 4 1 15 17 19 34 19 42 -2z"/>
<path d="M2366 3683 c4 -20 7 -46 8 -57 1 -19 8 -21 69 -24 43 -2 67 1 67 8 0
17 -28 80 -43 94 -16 16 -67 18 -67 3 0 -7 -4 -7 -12 1 -21 21 -29 13 -22 -25z"/>
<path d="M3723 3188 c-17 -35 -44 -101 -61 -148 -41 -117 -51 -138 -89 -192
l-33 -46 30 -7 c24 -5 35 -3 45 12 11 14 14 15 15 3 0 -12 2 -13 9 -1 5 7 13
11 19 7 13 -8 48 83 67 174 17 86 52 170 71 170 16 0 44 -27 44 -43 1 -15 29
33 30 49 0 7 -11 15 -25 18 -13 3 -32 20 -40 36 -25 48 -48 38 -82 -32z"/>
<path d="M4442 2963 c-5 -10 -12 -43 -15 -73 l-6 -55 27 54 c17 36 22 56 15
58 -7 3 -9 11 -6 19 7 20 -5 17 -15 -3z"/>
<path d="M3215 2810 c3 -5 10 -10 16 -10 5 0 9 5 9 10 0 6 -7 10 -16 10 -8 0
-12 -4 -9 -10z"/>
<path d="M3289 2751 c12 -16 21 -34 21 -40 0 -5 12 -23 26 -38 22 -24 25 -25
22 -8 -2 12 2 19 10 17 21 -4 -3 33 -45 67 -47 39 -60 40 -34 2z"/>
<path d="M3383 2573 c-15 -5 -17 -41 -4 -61 5 -8 21 -12 37 -10 22 2 30 9 32
27 5 36 -29 59 -65 44z"/>
<path d="M4050 2462 c0 -9 -9 -34 -20 -55 -21 -38 -27 -117 -10 -117 6 0 10 8
10 18 0 10 9 25 20 35 16 13 20 29 20 77 0 33 -4 60 -10 60 -5 0 -10 -8 -10
-18z"/>
<path d="M901 2234 c-21 -15 -51 -70 -51 -94 0 -19 36 -10 59 14 22 24 41 96
25 96 -5 0 -20 -7 -33 -16z"/>
<path d="M3815 2190 c-3 -11 -3 -24 0 -30 7 -11 125 -14 125 -2 0 4 -3 17 -6
30 -6 19 -13 22 -59 22 -45 0 -55 -3 -60 -20z"/>
<path d="M3997 2203 c-4 -3 -7 -18 -7 -32 1 -25 1 -25 15 -7 23 30 15 63 -8
39z"/>
<path d="M3971 2143 c-1 -21 -5 -22 -97 -21 -52 0 -98 -2 -100 -5 -2 -2 46 -7
108 -10 112 -5 144 1 120 25 -9 9 -12 9 -13 -2 -1 -8 -5 -4 -9 10 -7 23 -8 23
-9 3z"/>
<path d="M731 2105 c-17 -20 -31 -39 -32 -43 0 -4 -2 -16 -5 -27 -15 -76 17
-228 58 -272 20 -21 49 -26 64 -10 13 12 38 7 64 -12 22 -17 27 -18 51 -5 32
16 91 125 71 132 -19 6 -42 57 -42 94 0 18 9 48 21 67 37 61 -4 101 -90 87
-25 -4 -44 -1 -57 9 -33 25 -69 18 -103 -20z"/>
<path d="M0 2040 c0 -18 7 -20 74 -20 41 0 78 5 81 10 4 6 -5 10 -19 10 -14 0
-26 5 -26 10 0 6 -25 10 -55 10 -48 0 -55 -2 -55 -20z"/>
<path d="M3810 2052 c-29 -13 -21 -38 18 -55 46 -20 53 -21 50 -5 -2 6 7 17
20 23 23 12 30 33 10 27 -6 -1 -15 1 -22 6 -14 10 -56 13 -76 4z"/>
<path d="M0 2000 c0 -5 18 -10 40 -10 22 0 40 5 40 10 0 6 -18 10 -40 10 -22
0 -40 -4 -40 -10z"/>
<path d="M3382 1948 c-28 -28 -3 -72 39 -66 30 4 47 33 33 56 -14 21 -55 27
-72 10z"/>
<path d="M388 1830 c-7 -24 -3 -38 8 -28 3 4 4 17 2 30 l-3 23 -7 -25z"/>
<path d="M498 1803 c12 -2 32 -2 45 0 12 2 2 4 -23 4 -25 0 -35 -2 -22 -4z"/>
<path d="M1005 1800 c-3 -5 -1 -10 4 -10 6 0 11 5 11 10 0 6 -2 10 -4 10 -3 0
-8 -4 -11 -10z"/>
<path d="M991 1764 c0 -11 3 -14 6 -6 3 7 2 16 -1 19 -3 4 -6 -2 -5 -13z"/>
<path d="M3766 1753 c9 -37 11 -38 29 -23 8 7 15 9 16 4 0 -5 4 0 8 11 9 23
-3 35 -37 35 -19 0 -22 -4 -16 -27z"/>
<path d="M740 1740 c0 -5 5 -10 10 -10 6 0 10 5 10 10 0 6 -4 10 -10 10 -5 0
-10 -4 -10 -10z"/>
<path d="M2802 1680 c0 -14 2 -19 5 -12 2 6 2 18 0 25 -3 6 -5 1 -5 -13z"/>
<path d="M2830 1680 c0 -11 5 -20 10 -20 6 0 10 9 10 20 0 11 -4 20 -10 20 -5
0 -10 -9 -10 -20z"/>
<path d="M1298 1563 c12 -2 32 -2 45 0 12 2 2 4 -23 4 -25 0 -35 -2 -22 -4z"/>
<path d="M1360 1490 c0 -5 18 -10 40 -10 22 0 40 5 40 10 0 6 -18 10 -40 10
-22 0 -40 -4 -40 -10z"/>
<path d="M1963 1383 c20 -2 54 -2 75 0 20 2 3 4 -38 4 -41 0 -58 -2 -37 -4z"/>
</g>
</svg>
